<svg width="28" height="28" viewBox="0 0 28 28" fill="none" xmlns="http://www.w3.org/2000/svg">
<path d="M8.27659 0.320312H19.7498C24.1206 0.320312 27.6718 3.87154 27.6718 8.24229V19.7155C27.6718 21.8165 26.8371 23.8315 25.3515 25.3172C23.8658 26.8028 21.8508 27.6375 19.7498 27.6375H8.27659C3.90585 27.6375 0.354614 24.0863 0.354614 19.7155V8.24229C0.354614 6.14125 1.18925 4.12627 2.67491 2.64061C4.16057 1.15495 6.17555 0.320313 8.27659 0.320312ZM8.00342 3.05203C6.69933 3.05203 5.44865 3.57008 4.52651 4.49221C3.60438 5.41435 3.08633 6.66503 3.08633 7.96912V19.9887C3.08633 22.7067 5.28536 24.9058 8.00342 24.9058H20.023C21.3271 24.9058 22.5778 24.3877 23.4999 23.4656C24.422 22.5434 24.9401 21.2928 24.9401 19.9887V7.96912C24.9401 5.25106 22.741 3.05203 20.023 3.05203H8.00342ZM21.184 5.10082C21.6368 5.10082 22.071 5.28069 22.3912 5.60088C22.7114 5.92107 22.8913 6.35533 22.8913 6.80814C22.8913 7.26095 22.7114 7.69521 22.3912 8.0154C22.071 8.33558 21.6368 8.51546 21.184 8.51546C20.7311 8.51546 20.2969 8.33558 19.9767 8.0154C19.6565 7.69521 19.4766 7.26095 19.4766 6.80814C19.4766 6.35533 19.6565 5.92107 19.9767 5.60088C20.2969 5.28069 20.7311 5.10082 21.184 5.10082ZM14.0132 7.1496C15.8244 7.1496 17.5615 7.86912 18.8422 9.14986C20.123 10.4306 20.8425 12.1677 20.8425 13.9789C20.8425 15.7901 20.123 17.5272 18.8422 18.8079C17.5615 20.0887 15.8244 20.8082 14.0132 20.8082C12.202 20.8082 10.4649 20.0887 9.18416 18.8079C7.90342 17.5272 7.18391 15.7901 7.18391 13.9789C7.18391 12.1677 7.90342 10.4306 9.18416 9.14986C10.4649 7.86912 12.202 7.1496 14.0132 7.1496ZM14.0132 9.88132C12.9265 9.88132 11.8842 10.313 11.1158 11.0815C10.3473 11.8499 9.91562 12.8922 9.91562 13.9789C9.91562 15.0656 10.3473 16.1079 11.1158 16.8763C11.8842 17.6448 12.9265 18.0765 14.0132 18.0765C15.0999 18.0765 16.1422 17.6448 16.9106 16.8763C17.6791 16.1079 18.1108 15.0656 18.1108 13.9789C18.1108 12.8922 17.6791 11.8499 16.9106 11.0815C16.1422 10.313 15.0999 9.88132 14.0132 9.88132Z" fill="#000A10"/>
</svg>
