<svg width="37" height="30" viewBox="0 0 37 30" fill="none" xmlns="http://www.w3.org/2000/svg">
<path d="M32.355 5.87256C32.2167 5.33037 31.8237 4.92099 31.3743 4.79545C30.5774 4.57166 26.7038 4.06222 18.5163 4.06222C10.3289 4.06222 6.4571 4.57166 5.65472 4.79545C5.21078 4.91917 4.81778 5.32855 4.67769 5.87256C4.47937 6.644 3.96083 9.87532 3.96083 14.9789C3.96083 20.0806 4.47937 23.3119 4.67769 24.087C4.81596 24.6273 5.20896 25.0367 5.65654 25.1604C6.4571 25.386 10.327 25.8955 18.5145 25.8955C26.702 25.8955 30.5756 25.386 31.3761 25.1623C31.8201 25.0385 32.2131 24.6292 32.3532 24.0851C32.5533 23.3137 33.07 20.0733 33.07 14.9789C33.07 9.88442 32.5533 6.64582 32.355 5.87256ZM35.8792 4.9683C36.7107 8.21054 36.7107 14.9789 36.7107 14.9789C36.7107 14.9789 36.7107 21.7472 35.8792 24.9894C35.4171 26.7816 34.0653 28.1916 32.3532 28.6683C29.2438 29.5344 18.5145 29.5344 18.5145 29.5344C18.5145 29.5344 7.79256 29.5344 4.67769 28.6683C2.95832 28.1843 1.60829 26.7761 1.15161 24.9894C0.320129 21.7472 0.320129 14.9789 0.320129 14.9789C0.320129 14.9789 0.320129 8.21054 1.15161 4.9683C1.61375 3.17615 2.96559 1.76609 4.67769 1.28939C7.79438 0.42334 18.5163 0.42334 18.5163 0.42334C18.5163 0.42334 29.2438 0.42334 32.3532 1.28939C34.0707 1.77336 35.4226 3.18161 35.8792 4.9683ZM14.8775 21.3469V8.61081L25.7941 14.9789L14.8775 21.3469Z" fill="#000A10"/>
</svg>
